<mxfile host="app.diagrams.net" modified="2024-05-28T11:17:18.212Z" agent="Mozilla/5.0 (Windows NT 10.0; Win64; x64) AppleWebKit/537.36 (KHTML, like Gecko) Chrome/121.0.0.0 Safari/537.36" etag="A4_J7kGA0DXBEvvNl6bB" version="24.4.9" type="device">
  <diagram name="Página-1" id="2ItwiW81z63wvT5xN-sw">
    <mxGraphModel dx="1434" dy="782" grid="1" gridSize="10" guides="1" tooltips="1" connect="1" arrows="1" fold="1" page="1" pageScale="1" pageWidth="827" pageHeight="1169" math="0" shadow="0">
      <root>
        <mxCell id="0" />
        <mxCell id="1" parent="0" />
        <mxCell id="7kI1amkjPLfrpKglaufH-1" value="" style="rounded=0;whiteSpace=wrap;html=1;fillColor=#f5f5f5;fontColor=#333333;strokeColor=#666666;" vertex="1" parent="1">
          <mxGeometry x="150" y="120" width="970" height="540" as="geometry" />
        </mxCell>
        <mxCell id="7kI1amkjPLfrpKglaufH-5" value="&lt;span style=&quot;font-size: 36px;&quot;&gt;&lt;b&gt;CADASTRO DO PRODUTO&lt;/b&gt;&lt;/span&gt;" style="text;html=1;align=center;verticalAlign=middle;whiteSpace=wrap;rounded=0;" vertex="1" parent="1">
          <mxGeometry x="375" y="130" width="520" height="100" as="geometry" />
        </mxCell>
        <mxCell id="7kI1amkjPLfrpKglaufH-7" value="" style="endArrow=none;html=1;rounded=0;exitX=0;exitY=0.25;exitDx=0;exitDy=0;entryX=1;entryY=0.25;entryDx=0;entryDy=0;" edge="1" parent="1" source="7kI1amkjPLfrpKglaufH-1" target="7kI1amkjPLfrpKglaufH-1">
          <mxGeometry width="50" height="50" relative="1" as="geometry">
            <mxPoint x="390" y="410" as="sourcePoint" />
            <mxPoint x="440" y="360" as="targetPoint" />
          </mxGeometry>
        </mxCell>
        <mxCell id="7kI1amkjPLfrpKglaufH-8" value="" style="rounded=1;whiteSpace=wrap;html=1;" vertex="1" parent="1">
          <mxGeometry x="445" y="300" width="450" height="30" as="geometry" />
        </mxCell>
        <mxCell id="7kI1amkjPLfrpKglaufH-9" value="&lt;b&gt;&lt;font style=&quot;font-size: 14px;&quot;&gt;NOME DO PRODUTO&lt;/font&gt;&lt;/b&gt;" style="text;html=1;align=center;verticalAlign=middle;whiteSpace=wrap;rounded=0;" vertex="1" parent="1">
          <mxGeometry x="440" y="280" width="150" height="30" as="geometry" />
        </mxCell>
        <mxCell id="7kI1amkjPLfrpKglaufH-10" value="" style="rounded=1;whiteSpace=wrap;html=1;" vertex="1" parent="1">
          <mxGeometry x="445" y="360" width="450" height="30" as="geometry" />
        </mxCell>
        <mxCell id="7kI1amkjPLfrpKglaufH-11" value="&lt;b&gt;&lt;font style=&quot;font-size: 14px;&quot;&gt;CLASSIFICAÇÃO&lt;/font&gt;&lt;/b&gt;" style="text;html=1;align=center;verticalAlign=middle;whiteSpace=wrap;rounded=0;" vertex="1" parent="1">
          <mxGeometry x="414" y="340" width="190" height="30" as="geometry" />
        </mxCell>
        <mxCell id="7kI1amkjPLfrpKglaufH-14" value="" style="rounded=1;whiteSpace=wrap;html=1;" vertex="1" parent="1">
          <mxGeometry x="445" y="440" width="460" height="80" as="geometry" />
        </mxCell>
        <mxCell id="7kI1amkjPLfrpKglaufH-15" value="&lt;span style=&quot;font-size: 14px;&quot;&gt;&lt;b&gt;DESCRIÇÃO DO PRODUTO&lt;/b&gt;&lt;/span&gt;" style="text;html=1;align=center;verticalAlign=middle;whiteSpace=wrap;rounded=0;" vertex="1" parent="1">
          <mxGeometry x="445" y="420" width="200" height="30" as="geometry" />
        </mxCell>
        <mxCell id="7kI1amkjPLfrpKglaufH-17" value="" style="rounded=1;whiteSpace=wrap;html=1;" vertex="1" parent="1">
          <mxGeometry x="510" y="547.59" width="180" height="25" as="geometry" />
        </mxCell>
        <mxCell id="7kI1amkjPLfrpKglaufH-18" value="&lt;font style=&quot;font-size: 14px;&quot;&gt;&lt;b&gt;DIMENSÃO DO PRODUTO&lt;/b&gt;&lt;/font&gt;" style="text;html=1;align=center;verticalAlign=middle;whiteSpace=wrap;rounded=0;" vertex="1" parent="1">
          <mxGeometry x="510" y="520" width="180" height="30" as="geometry" />
        </mxCell>
        <mxCell id="7kI1amkjPLfrpKglaufH-19" value="" style="rounded=1;whiteSpace=wrap;html=1;" vertex="1" parent="1">
          <mxGeometry x="510" y="620" width="180" height="21.3" as="geometry" />
        </mxCell>
        <mxCell id="7kI1amkjPLfrpKglaufH-22" value="" style="shape=image;verticalLabelPosition=bottom;labelBackgroundColor=default;verticalAlign=top;aspect=fixed;imageAspect=0;image=data:image/png,iVBORw0KGgoAAAANSUhEUgAAAMkAAAD7CAYAAADAdLCjAAAAAXNSR0IArs4c6QAAIABJREFUeF7tfXuwbUV557eee+9zLi+ND1BGHmrCQ/GJGTWIkwJNZjRIgqka0CTGzIjJCFaBoKn4mhlBqIzgH0BqYjABM4k6IhkzI5iKYNRUUBN8AFGBVHwriSDcc87ee71m/9btb/Odddfeq9fqXvvsc/bqqlv33Hu6e3V/3b/+vv76ezg0o/R6vT8YjUb/yXVdStOUwjCk8XhMjuNQlmV5K/nzrH72+v8X6eF53qbjOGmWZRtZlo2SJPkuEf0TEd1NRA8S0QYR/ZCI7ieiLSL6sfq/vU6qXTs/Z87Iz+v1ejckSUJxHG+rxoBhAO3a2VsYePGgwL/5/9RhcuBEObjktOf6aZp+OwzDT43H428T0Z1EBHB9nYgetjDMrgsDCswDCbo9k4huCYIg/0QURdMN0AHkANVtcVPQWNIXffu+T0mS3Jtl2Wc9z/vrJEk+TUTfMVjvrmkDClSBBF1e4LruVRC5ZOlAYgcknucRADIcDnPAMfDwf6PRaEpyAAZroDjOH43H448S0dcarHnXpCYFdECCLu8Ow/AE3En4hCuKYDW/u2eql3GSptxlbW2NNjc3p7QBgFAADr4HFugPUey/EdEHieiBPUPUJZuIFkgGg8GLtra2Poux830EP2MRcWfpSnMKgCODS+DQYW7d6/VyLiK5taQ1g5DbKe7z8SzL3k5EX20+mq5lGQW0QKIAkUlAdOKW/Q2FAwj3EnANvqMw52DaMzCYs0itI+pmWXYHEf1ndfm3P8gV7FEbJBM15cWO41whNTcdJzHfMThssOGLwOC7Cegt74NCGzblNFK8E2vySSL6L0R0r/koV7uHOiA5hU8nuVCm5GOOJEUHFjf2AgjlBuY5yrnKnyVgmt5rStbjaiL6PSJ6xHStVrV9HZDk3BwLiT+QoW1tYgYK+uNLalGM2K0LJC/cmAMfACxG8cUcYGHFCANE3v9M5h+GYTYej3+ViD5i0s+qtq0NEiaULYDwSQoZHGCRF9bBYEBbW3iU3v0FGx/zYe2V5BSSg/T7/VwdbAsgTDn11nVbFEW/1D1Q1ttPtUDS7/dvHA6H5/JpKC+X9T77aG1+G5AnblHubtr3MrTDZseml7TCAYPDAQcCfo8CLlIEho2DqKABw90HFgAvnjwUf34Z6LMbxlALJJMJvdP3/XdA1LIBkCJXwqbAGvJF1eY3WlqMWSYn/LmcvrM0gZKbzNJs2Ri3BAr6U3R9CxFdaaP/vd5HLZC4rntxmqZTDdchhxxCjzxi5T6IzXaMMvzL7z7qD36eN0a5SWvNRXNhq0Aw7/d4CXRhXYI/QRA8NYqiI4IgeHKWZc+I4/jFjuM8r6i9Yu5hS9yS9z0+gAQ48Qj5m3iv1KTHSlaru7HO9zzvGjajsEWxXq+XjUajw1dQVgb9n+J53rOI6DeSJHmlPPVtAoXVzMoeLF86ADKOY5i2nKoskm0t6Z7qpy5IziOiG0ABqaWxRJEjiOghS33t1m7WiOhs13WvcF33SBumP2Uq6BLwge5PWcFDSmuf1AXJ64joAxZ1+PkgVX8dSMSS+b5/ZhzHEIeOlMqNNmify7cHLvSPmzxA/qvWzlmhSnVBAvn1D9tYqCzLOpCUbLwwDM8Zj8d/znezNpUZSuzFOvxkhTBQOdUOJJUkWooKh8HSNwiCs2DbxfcJG8alfOAJDdw3ieiZRDRcipkvwSCWCSSPUe6tS0CWpR3Cef1+/wa8u9gyMGVtGh4xAUBl8XA7EZ2+tFRY8MA6kCyY4BY+d0av17sV/UinLAv9TrtQIt11E5X8+Tb73a19dSDZnSv3K7DDsnk3LJoAKU71WtZm7k4y2Rl1BxI7dFx4L/1+/9LhcHiZrQ8XzWbEfQfW31+x9Z3d2E8Hkt24amrMjuPAGxEGi42LtA8DUPA2A20wOAlKlmU/ybIM98WVfZXvQNJ4ey1Fw57v+1txHDt8kec3FbXBbQ3y94noIlud7bZ+9hpInhqG4XMR/Wg8Hmd4WU6SpDhHPJpN/89QjVpl22VtPyifECcMw3vH47H0Yz+t1+vdDg6AuZRY/RqPQYliLyAiuAavXNlrIMFF849ZvtZ5eJMnb5PVLzpVNemjqs36+jptbCDwY25vhVgDTyhER7nB9/3z2IARf4sQRFXda/0+DMMfjMfjI7Uq77FKew0kWJ4rfN+/GKfqIjZw2/uBxSh5XyCiLxLR88W315V7rmNT44X+0R/GoDjuG4noWv7uYDC4bGtr6zlhGH56PB7DPwXGkgjbuqfKXgQJFuitYRi+Bw9jVeLUsgNJPhqyBa+6WL85TdOrxG68uN/vX4GHRhT2cLS5W13XzSbflNbajw2C4F848iSb/Ydh+KHxeHwzESEM1fdtjmEn+tqrIMEJ+IUsy55XRdTdIG4BHBgnm6SoOWXr6+tHbmxsIPg2CmLRjnq9nsOPjLZe5ZWYxw5x752YrFzKdHVd930T6+0L2UefLYyFWzbCtH7UcZw/i6Loy1XrsYy/37MgmRhiPtnzvG8Xw7MWF2G3cBIpdjFYXNe9Lk1T+Sp+ARFdBS6CeXNgCZONBxUxAMpm+0qBAJUwuzUchfjEkPOUf8oBxKrYxoVvPxIEwe+tr6//8UMPPbRr3CL2MkiwPvB9gQ/Mri684WT4JRUXGPN6moitteZ53n7W6NnkJPxuog6dbdwE7hOu674Ov5MRbwAujJ3BKkVAz/OuT5LkvxPRfcu+OHsdJNNYYcu+EE3H1+v1rhuNRlNuAvEnTdML0Z8NkMho9+ICj+4Pmbyd7FfjfhK4yaywrBVz+zgR/Y5KNdGUDK222+sgAfEW9pbR6krN7/yxQqt0ErRM2Nw6igudMYMjsCjFdw7P816fJMkHuH2/379jOBzmGjcZ1KKqf3F3uTaKIsQy/peqNov+/SqA5Hoi+vVFE3ZR31OX+gsnQSYQqZHLPxPRv7ExBnm3kOIeEf0ojmO813B51cQP5WOSm9Rx8RaPoOCCci42pmHUxyqAJPemNKLS7mg8XcuJqcolcRxfbkPcKvZRiAVWfIVPXdd1qpQlRXJKpQR+F8fxN7IsezURLYU2bBVA8iKlr98dW73mKJXpDd6DniouwScS0V02QMLDkX1xxEnHcd6fpik0anlxXfcaaNtYZY03qirAFGOCcV+Kg71tEnPEmqVzTdJOq68CSKCiRP7BPV183780jmNonbhYuYvhPoKNDLUzxCfOoSle9hFXjJPUnOI4zp111er8jTJQ+b7/pTiOf34n/e5XAST9FmNKvawkc66VzdkA0TDumoonQRDcEEWRsfqbwSBPfBa5FHf5Ocmp1at8PnyduGHFUK5SSSBpEATBs3bqMXIVQNJrMagB+j6QI2/5yrlEdKONYckLOL91iAt90Yz+Std1L8JmrzIJKhPllNiWi2n8DQGk19iaUx26rAJIIA4cCDFivyCY3LKGvc/vJfanvL1Hz/N+pKyS+RenOY5zO1si80s9c6Im/i4y7pjruu9O0/Qdbc9L9r8KIEFM3u2J6O1RGNa3j2YCtdevjZ5gy9U6l1Pi2NEidXYvCIIhezhKo0yeVNG+q2qyzEnQF8AHhUEcx1OFQVV70993IDGj4DKDhH1PzGao0drzvFcnSSITBCEk0WlFzdW+fftyv5iy1HezPlN2J1JguS5JkoVEc+lAorEJ5lTZV3JxN+vRYuswDG8Yj8fGl/d5QwJXiON4myp4Ej8tN7REO2xyvsdIEUznUl/8rrwbKe5StCGzSL1Hu+pAYkbWpQaJMmlv/Z3B9/39cRzDlkuWs3zfv4nvJGVWwTqeo+iwaImM/1vkC30Hkj0MkiAIXhdF0dS+ymyq5a3BKcAVRqNRmeh5/MSt+F6oimEJzHcLaSlcNaaip2XRJk2B5Wwiuqmqr6a/70DSlHIH2i07J2nd2oA3fhAEz46i6M4Sch4nzeFlfkhd0pelj2B3ZrZM7vV6Tx+NRohjbL10IDEj6VJf3InoZCKSkVXMZjujtYr+CFurWdl9T/J9/2vsA8ObXscfn+sUUwUWTW7UIyZU8tYDfS8TSNpKvbCqKmBs6W2neCsIebTTt05c6y+f9Q3f98+I4ziPYYyiAxDd8Yp05p/KsuxM3Xa69TqQ6FKqvN6ycxIEbXjQbIrVrdVbyCeyLHtFRe13Tvx73sEiWh1T+ln9So6igDePo1VPpqRGB5JGZJs2WnaQIP/1yGyK81sLJ6yyQIAHNYbYFccxHMOsFOZIGAfEOWjTDjnkkMc98sgj1py3OpCYLdWygwSza93gUohOOvvpWN/378dmtmXKL99c1M9wCYYTmJWiMyn5od2YDm6V7yStg4TfK9TfsLiu5Fy+71+ZpulFVb4muju8GK1Svau8NI7j23T7mFevA4kZFTtOoh77lMXvkzV9d7Dv0lkOV3WWBNwIf8CZCq/4CFkEZZBx6UBiRsJltgLmmbUqbknr3izLZHijKsrmmZyrKun8vuhXj4dL5ZfyW1EUGbtudyDRWYXZdZYdJK1f3Pk+ojaqdCGuoizEYLgw1N2DB/WLMbA5PUQ4waFwQMBVwii3St0BdneS7Uu07CBZiApYkARZe7UfL13XvTTLssvY3ZdVwqwitvSW8lumgUA6kFSdd/N/v+wgOZaI7jebYq3WzyaiMtOUWZ3gzpBHoZc5G4sRK2uN4ODK4CYH0nY1LB1IGhJONVt2kOSB6symWKt1LU6iev5YGIav4lCoLCrZeGjkkfu+//I4jm+pNRNRuQNJU8odaDdow1bIbEjbWr+QiD5nsb+qrupc3LmvM8IwvBUgAQeB6MW5ZWyIW0p0+wIRnVo1+Fm/70DSlHK7AyRwuELQ8EUVXRWwHE+pcqHM7bfpJBR3Or6p6NmBpCnldwdIkEekdacrQcImIEHzm3u93iuxmeHea4OD8JiEeniuAea8bdCBZA+DxHXdG9M0RWihRRUZuFv7m57nnZckSc7xiimzC4mLtPuUFdX95gdE1CjnYweSRmSfNlrqO4njOPuzLINVwKKKlllKyWCOdV33ftxHVDQUmafReOwCeE0UC7Ufcrp3ku1LttQgWYRxI8ghRJq6h66kZia8HIup74yAIiJOvi1N09riZ91JdSDZPSB54qKSeiqvwbvSNIUnZNNyWxAEL4F4Zcs6mAcivBu/lCRJZR7N4gRWASRtRnBcZk5yhuM4t9YNXt1kh6uTGjlF8gxbTYoK+F37lK/6lowtrMBS2wO2A0kVlef/fmlB0u/3Lx0Oh9Y3XZEc4nX8LWmaXmlAznOCIPgwNjI/LBaDaRv0nTdVIHk5EdV6WOxAYkb5pQUJEd3t+/4JHPfKbJoVJ8VgQFtbW7+MTFcG39kWtMKWyMUJUXlcaZrWDmjXgcRgVZf4xb3NdBOzKNZIc8Sdra2tHTUajb6L13Zs7DpR6ectIYMN/anwQ18iolr3kg4kexMk2ARfkCmhzaY5u7U48WH6bmaS7jgZ7lAyiJ1u+oZ585POWOr1vdZYO5CY7Z6lFLcmG/edjuO8w8YG0yGP67rfTtPURiLT3EGspRf3fCoAte/7zxyPx9om/asAkjZ93JcSJER078Rm63ibm20WWJR/+XvTNIUJjFGZADvnJLaLpIPifLUu7x1IzFZkGUHyxDAMvw+RZWtrYfmFam26WSR3HOfvsyyDT4rVwp6L8FpUotclRHSF7kc6kOhSqrzeMoLkDWEYXisDVJtNcX5rdX/4KSL6V9PvOI7z8SzLfsm0H9l+RuT664hIO7dJBxKzFVlGkOSilm3Zfg6Z7p7EALYSbM513Q+lafofzZakvDUH6lZ//2OapifofqcDiS6ldgcnOWYwGPwTxKwmSXKakMJ13Ub2UGXfcl332jRN39BkHLPalHESdS/R3vvaFdUgOtut7auxVO67vu+/K47jt9vcZBp9Gb2PyP5d14UC4C0a36xdhX3omxhjdiCpTe5tDZYKJGz1K1+ZbUVJnEGmn0zSviEii5XSBkhkALxCtElk5tqvM/AOJDpUml1naUAShuHZaZr+bzZDsW33NIME70aUeDMSPtradd2r0zR9k63+Clwq/6c4NLS9KDuQmK3I0oDEcZzvOI7zJHZcsn0nkeYdIntunWB0lZQOguBDURRNL+627LeKH1bvJtpj70BSuXRzKywLSJ4XBMEX2NV1bW2NNjc3rbxcc0AGcCbmUgqASL32dDPyHdQadlXP0U042vTbHUgOplybL+7LApI8bzqmLvOec3ieppuprB2f7kEQvDaKIquRWIIgeDiKojyLb5viYgeSxYJkGaLKP9913Ts4wSZPX578JiApxtkVp3wbb0TbbFLa4igKJNoxwjpxy2QHES0DSL7muu5JfCFlzRb+bVumF/29a0I2pHazXTKoasEBh0Pr+UGnY1Ug6S7uYvXaFLd2GiTI5vSxQmT3fOo2xRV2gUW/6l5yGBE9bBkhR7iu+2OpsrY5BzlWRS/t8EcdJzFb6Z0ESdjr9Uaw0WJRq7ip+AJvMkUp8qjNdS0RvdGkzxltj/d9HyY1eZjTovho83tqHq29k+SJV2ybYDd10Nck3J7kJGEYXj4ejy/htZBrAo2UzUu78sHIw/xkWfZ4InpAk/ba1Xq93stGo9EnRbrpXAnRxmOoohUizWvZ5dflJB1Iti/7TnES+Irc24bvxaxdrcIGWfEbKftGEAQXRFF0FX5nE+R8j+Io9YIzau997YpqYh1Itq/wPiLa0D4u7VX8uuM4T18USJQ5B05dmKDYvoswVW6e+JO8UnIPG9otjF3cpfKflaoZ9yqt0oFEi0wzKy0cJDI+lW3tVdkshRiHewjuI60U9krE9yByjUaVSXy1xyGBou5t1xMRDnyt0oFEi0xLA5I8wEPRRMRsCvNbq9P820Rkw4d91sfyjFcykJytIBZlygvXdd+dpqm2zVkHErMdtkhOgm89go2EjcsB3MyGr936WUT0Ze3aNSv6vv/CLMs+VwxcYSOF9YyhvLZO3pYOJDUXtFB9kSD5uzAMT1Uapvxyi9J28DnP865NkqQNle+UlK7r4nHy7Zw5FyKRLXFLhifCzyqj1s9GUfR3ukvfgUSXUuX1FgWSy33fv4QBYUsU0Zg6LuvIRBVr1DWpcrfjOCfw24gM3GDSqWzLdyslPj6GiB7U7bsDiS6ldg4kr3Mc5wOsyZKX9QVc3FsVsxRJD3Uc5ydSU8fzsmHuL9Nd43vqO7X2fa3KSiOw2x4T24wq3zYngWUvLHxbL9JrD3cDz/PAubTD7hgM8My6AazrfgtchEuWZR+axCVDLknt0oFEm1SlFdsESa7JMhte/dbq5P0gEf1G/daNWmDTthIhhUdT4Eivh9VInZF2IKlDrYPrtgKSwWDwwq2trYWklgYocNLivqMAgrzvp5jG9dUka2nmXc22WtWYQwrRFHP7ilZjVWmZQILXXAQWsF12lbjl+/5pcRzfjkXFprWRWLMGQXFRx5tFG+tw0DA8zzsrSZKbaoyvUdWCrSH2Q1Kno2UCSe0MRJoT3TUg8X3/zDiOb2nLRLyMXiKfYJamKRyR7tOkq3E1z/NuSZIEd5LWipgfDh340Ne6j2BgHUjMlsemuJXHNMNwhIvsIjnJy4joVjNy1GoNNaxxaFTdLyqxq1GioQ4kulQur2cFJL7vXx7H8SWSg7T42rxtJkoUeQ0R3WhGitqt3+r7/nvafgzFqIShZCORvgNJ7bXd1sAUJD3Hcf4sy7Kzcrb+aDam/CO2/XZmTLVVw8UZ33Qcx0kXZcWs6AguCW5Zu3Qg0SBZIfJf3kK9epuA5MmO49yRZdmRGkNoXEUCDZwKph9icyJbLrLmLrR4nndOkiR5EtFFAYWIGola3Z1EY2sUX7XBulGU1qmp09U5ruv+eZqmdQ8pjREfXEWKbizS+b7/tjiOW8/OO2PAD/q+fzgA24bnofymMHFpulbdxV1n1/FjFP6GDI2FVZutLuHhMvon/X7/XDbga/skFSmk5YasnYFWh06adV42GAw+ucAEQxiWUY75uifZbvRMNFYBF1Wy6+vrecibJEnqBKd7ERH9zSTyu7OIy2pxwwpVqLVUCZqg2FbNcZwHsyw7XIY+atKPbhslCWjH2CrrtwNJBbWlC2mJxkkHJEgX/T983z8fNlHgHNyPDffUqs2Cb+C7ivu9NkkSq1EXq74vf+953quzLPtzbFwcFAu6k8D27fQ64yzW7UDSkHrK3RQAGM/p4pwgCD4sX835jrPIB0MYv/Z6vZePRqNFvoOU7bVpCusFzv/niOizDZc5b7YKIDEOKcQnPxYWJUmSfyAiJKf81AziIz3a9Wtra8+H7M33DhVxJP9323cRMS6YmiBZZ2uehZob8K1hGL4HHI3FzQVwUituxx1INFc4P1Ec56Ysy36PiO6a0ewxnuddnSTJefKklE5SM/wbaoyiVlUAZKGmJmWjGwwGT9ra2voO/47BsQBxy05W4FokPxBhYrf5k+ScRKpypX8B5s+nujzZCsEWkKkVsvys8EFH+L4P99MLcVKWBYyrSefiZXf6b3mnwX/OyQl428TU/t8T0abJty21/bTv+6ezytc2feTaisMJ1szPsDH+leAkYRjG7BsOohUBg41XfHRLkuSqMAyvH4/H88yqj52kFLtIhv1E3zbFKRb1il56xcgi8N3m5Drj8XgnVbzFfQmDwqmywDZ9JGfG/JlOQRC8IIqiO/YaSGr5HdeY/EF3EiYsn8LYiEr7c1UURR+ZmC/8bUUIzNPW19ffvbGx8RK0xcLLvOklL9s1hntwVSmeQP28f/+jqf4KpzLEq7OJ6ONGH7TX+Gjf97/VNn0wXI7QqMTi/5Nl2SttTWOZOElbIMnfSYrqW3Wi3eM4zofTNP1LIvpiBTCOCILgNVEU/deJSvfQ4gKUiT22LqZ8OvIcAAy+5+D0BHA2NjagwXraaDRamKm7xib8KhGdPEsstEUfBYyckyop4Wgimt6BNMY5t8oqgAScJMK9e319/Z6NjY0PE9HniQghZXSci07zff/CJEleJe8u0NCwmCY37CzxqOlCVYFPAeg6Ivqdus5ETcek2e5Sz/MuA4dukz4YCx8iSkKA1tGqb/4qgAR0hMsmLnJaHmlhGD5zPB6f5/v+xXy/KNoY4cTiRzHeNPv27cOJPr0b2PIqlNbBLCpiY0yiEGZxHL9YgV5z7y6k2hmu695apFlb9MFBgm8lSfKQ8qy0OslVAUkV0ZDa7PmTtwQkxbmwaNSIf8uNKhefE2/Kd4+ieFT1cZ3fF2JR4e6B0/J3dYGv8w0bdSDyTTLofoNp1DZ9kBmL7cCUuJnnOLFZVhEkMDJ8oud5pyZJgov3L8Rx/NPFy7bUmuhEOpf3BV4gGw+GRXWp4GAXENH7bW4GC33hsIGa3Cm+qLdFH76PhGH45tFolKdusF12HCRglUq+b+viDt/5n1F/XqG4hW06VvYnOYF8weesTvJ9BZ1pBJ4DN0GKaOsnZ+VkZlRwHOfvsiw7ld+hbBwS+JS8l8mfRc6R26IoemnTcVe123GQ8AAPP/zwIx566CHIlI3KEUcccdiDDz4IrcYJa2trJ21ubv6HIAiea+te0GhQKiENDoHiQyX6Y2DwppLJQYugmfF9vPzn2qOdLr7vfzrLstML4YmMh1UmukoLhl6vl41GI2gbH9WLG391ewc7DhJsHpysW1tbmOgjc+YHb6fHEdHjwzB82ng8Psr3/WODIDh9a2vrlAWYODQmPS9qmXsuOpUnLs9D6v0rPrwT7rfbhuR53k2O45zFNllStLLBTeR7Fr5RuOc8ZRJZ9FuNF0ej4Y6DhMcYhuGvJEnST5LkKCJ6rOd5hyZJcioRPZdFFT5xiyH6eWPxvYLrFbVPGvSwXqXM2rX4eo53js3NzdyRi7kJR1jX8D2B2AUX4B9aH7xehzd6nncur0kNcOv1PqOWoitM4FsPA7vjIBEbBouNAAE5WaR9VZmLJ2ucQCy8di9qcZquLE5DjJk9EgtiRD532bfufNBnr9f7zNbW1kuajq1pO2XweVbxodZmzkN5cGCu4g63MA664yDhk1aq8srC6YgL/nRNJQdRQZ6n+csLAQ+a7gMr7YqcQ3IXFVH9Ws/zLsXHMG7eDLofV3T4BSL6pG4bw3p4oP0r6cyEOWHc8g5oSwQuOI4BKHg8hdHpQsqOgwSzlJuItTp8khYN2PBv5h5oy3ZXZY99vOkWQsmKj0irYiVT3+i67nVxHHPM37/wPO8VUpTUcUwqcGKY4Ewdm1qa9z7f97+Upik0a1NPS4BDHm62AMJzYHdfz/P+NIqic1uaW2m3Ow6SMjNnJjD/jkWr4l1EbqIiWDRUqAujsxjbFzzPuyJJEtiKbckB9Pv944bDYW531SQwnbq31coFWJcAYRierKyiHUnf4s8YC9bKFlDEQfmJLMugxl9o2XGQmM62SidftphlTj/FfopAlY+NRZMUKSpy3wLA9/T7/SuHwyEsc6uyK8GkvHasWqntaevVGblpXNf9AIuDNpUiUpKQP0sxa5JX8dY4jhsFlzPeYzU7aMXpquYYtlWvOq2K6kM0lpyJNzO71rLYxhu/yJGwIVFYFYl/I3KKjMfl+/7tcRz/TyL6vxrAmM6HuUkdTsJiiBA34VJsMwi157ruH3qe9+ts1GmTS0v6s6TAGXOFOvy20Wj07yqstE220dy2u56T6FCGTyfJLaS5h7wol2y6g0A148HsGuXHAevih3XGVVYnCIIbOPK5LlgwHtYoYfzj8Rivz/BMNC1IB/f3ZWYmNlK18eD4ICs70NQ8fn4Bd62ZtNrzICm7/BbNz8uAwXcDDgOEfxe4FvJqfKLf7982HA7vN92Nov1xjuPcV+cRrniye573UJIkMMdpWrAvLguC4BJcyCUgoFAB12rbkkHN6RNEtPA7SJFoex4kPGEsNAgP0QiFX8GLp7V8uGT2r+pc0+/3Pz8cDhF1BOYgeNtoq9zg+/72wp48AAAcGElEQVR5AEpRWVH8oDTRYBFRHQy/PbFOAHerW04bDAY3b21t5QHkWIwr4xw62reqj8uDh7+n+l1kSrrVFrdAeBBdnnyFd4qcQIXsrzemaYp8hXDj/ebEfL6xTVnVJpnx++N8379P47V9W3O54ZRN02EVpj6y/ZOVL3oeyE2KqDIkEr8/2UyTLd/A1Nosk4/+csTdariRKptJWym5gbABkiTZcBznsxOnJTyKwZIWAR++X1TNVn6kpQqO43wyy7JKbQ4rHNg5rKAWf38cxzCpn1cO833/d+M4vrh4J5AqeHTAXGXG3aERJST3UGB8Y5qm1zbqrKVGe1bcUpf072dZ9k3Xdf8hTVP4sCNYGd4iYDHahDsgYuPJrus+z3GcVyVJ8ostOj3BCaxWtA8+CHDKg3MqUW2Wv/dRrutemGVZ7n3JpcyKAf2wWIpNbTMaDL6rgI1BgIt9pqW93rjbpQCJJLy8RM9T7yoW/cUsy/5RcQD8Def/H6i/EW/qwAWkWUGc32Ngej+J1Ihg17CNeo7oCosKJ6NRs+6rW7mu+/XJC/PTWVSUCocq1bfoHRmskMlKlvw9xqYqd9ZsJDdiTsTcjn8XBEEWRRFo3ao1bzXFy2vsOEiYUL7vfw/yP/yUsyz7Xq/X2xiNRj9SAPiW7/txHMdQrQIITbjATBqtra0dtbm5+SRsyCzLXpimKd4ZnlpB1NZBot47bime8jUAkjcNw/AZ4/EYPv55meQGuQpiWN1+Gm8yx8k1g/wSj35UhBdwESQXRaYvkwOt6dC02u04SEA4nCxxHNfOr601w0cr7ev3+48fDodPc10XQeWOS9P0HMdxjpFBzVBd+n9UqGLBSdpe3NTzPAdchDVzdTiAmgtEGGklvOZ53v4kSequf02Sb4+HhcbynjjhxEt1QZ81ubpEyjPE2jyBxIIjJOX0tKu9GnMaKE3PthpFMaC48TRN1XVSLxhNpd/vnzccDm8oE0N1waJUw/DNgcaOy8Wu617RdqYp/hiUJRxFU417Ib4gRsRXjXccJIKIp1SEFG08X9d170rT9ET5JgLuhSJ9zCECIPIGbxyNw6B1kCjxKMWpX+R4OiBhrhiG4ZfG4/HzBBE9x3GiLMvq7oFG68C0933/43Ecv7aGarrR92w2qksg65wEk1E6+dbELYBkEqnxRH6YkwaJ4vsH0VUDJHXTwTVaO9/3L5X5DZtomNRcEKOLTfMxFqiHW4kwIieqFA64w716oh38aCMi7GCjHQcJn4ZhGLbGSXzfvzuO4xPko1XZC7KMYoKf2YtwzvosBCQIuNbr9X6M8ZRYGc/dPjLf43g8voeIThQNjFPlVe1d9Y6TpWn6JKWEqWqydL/fcZAocaLti/vdYRieADdfFOYQbGLOBo5lNl0VMnubIEHgC4Rn5fIxhEOqcg0o22HSzH9iofzSOI6l8WPr3MT3fUSaRK6Qncy01Rh8SwEStWlbE7d8378njmPE3poCREee16CqLZBA2waVM95hXqBig0E8QSA9Ls/3PA9536ehiHSNIKVfhnpMleptcBOcHvleqLI8bvLaLsQt0Gubs5kGjXe8SgcSsyWoUgGDvuAIj51oBWEbBctcPE7yI2WV2QkuuDIR6LeCIDgaWiJwBzbZr5qCEGnzoBlEVMwjeGkQBJdxAtLiXYyBwf1IN4MqoBac1a5N0xQBHHZV6UDSfLlw0mOTY9c9xnXdJ6Rp+hTP854wSQl3RJqmP5Nl2c9UWfFWfB7WAwgXlBfP885D9tyiWDivD2mIKOJhfSbLMvluArDnGbGk85jUABa/oakiPygTVxAEPxtFEXxudk3pQGJhqYonrIUuZRcQv9iGyzvkkEOijY0NRyUdqjSlR0fY0JwJi4EQRdG2dynXdd/nOA5suUpV4OiD3zk45QT6quIkqKMi4OfcTylD6u47yySt113dwbaiAl7AnSTXboE0LCpYupMQq5Ol3zyb57OioN6SbK/ted6HkKhU/O/7EPlecZZKkEh1N2u61Nzhc48o+lyOdF33ewAf6mHzs82Y5BpK2XEbQprqzqsonrmu22rACt1x6dbrQKJLKY16UrSxBULl3PX4SZKef1FDgBXyV7FZTUHY6/WeWsiMdZPv+9NwpRKIg8Hgi1tbW++Z5HqBR6bX6/Xyh8iqMUhFgFS79/v9pwyHw6U0aCwudQcSjc0/r4qwPcurlaWjNvwEmoNzXM39OI7zYJZl2zwHq8YI0MqLvuJ88NuYXqSDIDgliqI7uS/XdX+YpimAAeVBMdLLW5TtVeX0pCJAhFdCeFJtblT5kRYrrApI7orjOH9Esy1ulfVZFrKo6Roqm62NNE33cR+e570uSZIP6PYpuZrUNikuhZQX0qr6r1WWKqTNm+e7D63dgYenOYWtf1GlJL7xLxMR3n+WuqwESOCTDrMUnUvmoldLmpgUtVby0VOlfWOTkkMQkUXDbKZyOnC8StN0yqUqG4gKruteMOFoV4GuRR8RzbFBQ7iIqJN1pnVQ3Q4kRuSz21haysq3CXUKF52n8hd4CyMw2aiB53mjosl9zdQLENuutDCP1rroQNIaafU6BifhTcUmMKxNKlEtH84Zg33fPy2OY+O0A+rE/9WJTRfEqyblfM/zrinaumlyEnwPIH0CET3Q5OOLaNOBZBFU1vwGRy7k6izCMIiCIDg/iiJEVOdiHNZIAfK7yiJAc6QHVSsdhw5QFMcsqqObjqOVdh1IWiGrfqcAAnsdsvEi/sb/4eGtEAZ0mz2X67qXpml6mf7XymsqoCCtHOKJNSkXDAaDq0QW3HzsumpwNUdEi0RMs6UrHUiWZEnKNGIiEPYtnudB0/TFJEn+SAwZJiuIDdC48EZeW1u7fnNzE7Gem5Sppku+hVQZS8oPOY7zjSzLfrrJx9tuUxckrQTMbvvFfZm1W6wiTdP0pl6v98+j0ejrSvWK9G7f0LCaRazeZ9vYKI973OMOeeCBBxol6CxyNV2ASLdkIoI5/TTwhY052eijA4kNKlb3Af+Nu1Ug7X9VwfAQ9QU//1N187k1YLIiLYVrdycC2pmkWOu7rrvFEVHq+r2I2FvSPaD2XNpo0IHEjKrvQqwoz/MeTJIE4lCirGnxOl2Vi8Tsy4+2PmximIgwTNP/4U2vc3EuDAKPiiaBtqd2ZXUmJz1Giei3EGykTvu263YgMaMwnJfy7FQ7WQaDwW1ILMoXfran0rk4cx2Y08CsP4qixhdoFb/su7qiFtOsxN8FUTraTmunvWQdSLRJVVrxmUT0VbMurLT+lTAMP4JNjj/8zqLLSWS9MAw/OB6Pf6PpqHzf/1gcx/kjpw5YZiSUNRH7mg59ZrsOJGYkXRaQDHzf36wbhR5Tl3cHsakPNQj588xJnOQv1zEBAheDypjbKE1flden2crVaN2BpAaxSqouC0gwNCgHXoINhpd73RTdUiQTfiMI/fMRA9LAlP/kuvlVCv4u2yyfDcZi3LQDiRkJlwYk6+vr521sbEy1XMIkvXKGUixSJvWfSZJEuvdW9lGocKbv+7c04WzcjxIBYcjZSCVdd8Dz6ncgMaNmaxFeGgzrsF6v95BGrLCDusaGBBdBrGHh147AFTBXaVQcBwEn9axm8P2iv4viKm9DWrpGA7DYqC5IdqX7bouPicsEEmwLPD4+DT/oBouQ4lbhov1mw+iOb5gYLmol45GJh0pSzCEnTGvpLXSw1IFEh0qz6zRWl5p9dmbri4noijp9FzVgIlTRTyYggdVx09LjiPsMWOkrXyN7rylYm45/2q4DiRkJlwok+/btO2n//v3TyPw67yTyDgDAFCJWmr4DvU85dU0NNfG9mv4maIJXeD3ZzWw9S1t3IDEj6lKBRE0l30y6byRclwHCGxgnfRzHb07T1CSg9klIpyE9LDmskOq/CMqDVkMB/dcm+WT+xGypmrfuQNKcdmi5jCCBB+O5ukApE3sK95m6e2QbRRGmiAPsMZeqw+HE+IzGYbLMdT/cXdy3U3sZQYJciDfUSf7JG1HafOGBD/4hg8Hg6K2tLRhjNi3nsNdjERy6YFGg3bGgER1Imi79gXZLB5J+v3/ceDy+D6d2zU2Yi2hIZLR//7anCVMTEX+SAhsxunKTmWJ4oaq3FBb/BoPBvVtbW7nmbtGlA4kZxZcOJHwv0b2TyDuIDDSH9uAsvu/fNxwOq5KszqUiJzJljiWcyWpRv9/vnz4cDo39+mt9lMPt12jUiVvLL25hhIiyeFbJm0PpUrP9Fn6JE7/kjWVWLnitrTMxvjyJs/9KgOi+5Yh6yG9SFYlfa0x1KnWcpA61Dq67lJwkCILXRVGkHbxOgwSvJyLT/qDlOgkbnjmWLkgwPuHBaWQJoDHXg6p0IGlCtUfbLCVIiOgZQRB8BfK+rmnIPDL4vv+lOI5lUtLaVEPaCHhQFu8lVR0Vze3DMHzveDy+tKqdzd93IDGj5rKCJIQph+7FvYoEqp+fUu7GVdVn/b4fhuEWuAg2Pv5wXvp5HRa8FrnqQk1VOpA0XfID7ZbNdms6G9d1v5WmKe4SRkUoAF4zSVmHNxiTAitlmUZCuy+MAw5am5t5rqFiBjDtfppU7EDShGqPtllmkFyVpimShhoXBZSboQww7OwlYRjeBm6iex8pZttii+FiaFXDcc1t3oHEjLpLC5IwDM8dj8emJ/+UOkpTZsOGKisG1563BFKVLeMje553ahRFXzBbPr3WHUj06DSr1tKCROVrbxqRcTrfwnuLTE3XiHK+71+ZJMlFugoF/r5UZ6vL/MJCo3YgabTU00bLDJJDfN9/uOpFW2f6QsSx4QR1iuu6d5bkKpk5lDmv9Mit0nropg4kOrtkdp1lBglGbc28XCUW/TqyCpuRLH/zyKAxM8xMjGHYeL+pnE4HkkoSza2wND7uZaP0ff+2OI5NfNXL7L9snN65c5hOyKGK5blHiZVmq1jRugOJGXmXGiQTz0A8uhn5iLOoJVJXn63MXkwod5ytoH79fv/44XA4L22dyTjzth1IzEi47CCBX4kVDRcHasiy7INpmjYOXifIPdVymS0BvVcdBobdzG7egcSMtMsOEpiSGKtJOcqieMGvu28OonK/3798OBxeYkb+qQdmq2FR6062swLevqrLDpJjTKPWMzA4ASpUsXEc25j3C33f/5wN7ZuyDIaFcCulA4kZWW1sFrMRzG+N9TUKPF1MSac+Z+qIhW6QdTeyMfm1tbVPbG5uvsJGX2V9dCAxo+yygwSzs6IGZlN1XOB93/+bKIpOMyNdLirdlGWZqakLD2Ndpb0wHdZB7TuQmJF0N4AEyYNOaDpN8ZA4db2F//twODQ2UYH5fJIkNxjG5cqnFobh2ePxGM5m1ksHEjOS7gaQNLa8ZdLI5Kb4WTlNmcbkQvdP8jzvO3hULDE70QqLJN5abBhglu6GDiR7HySI6IjHu0aFL+4y+qL62YbpPMb0PcdxjlRiXA4WxDMGdwF4CsHyZs5BgawVP5NVAcndjuOcoGtUV2M37QZOYvygWHwZV//+U47vVYNeB1V1Xfd6Ivp1/KJJXC6ACSKh4m7wf7eu5epAYrLCRLsBJFYeFPluwrGCoyjan6YpUiOYlmlcrmLgCt2ILxiAutd8qKlT17xJdCAxW+LdABJooRqH4REBGLbdG9SGthGUIb+XYBkgXs2Jcl+6Ulwf40TIotFoZF3k6kCy90HyfCK6w2SaUtzat29f7kIL0cjzvLOTJDHWKLmu++Ak5vDhHJdrhl97+aXacfJgFyLe8MviOLYqcnUgMdk9u0PcArf7ctNpShGoJLDE1USEtG1GJQiCG6MoyuMXywu7rosvgwuq6fF4bMu2bDqnDiRGy7sr7iTHOo5zP0eNl3J+HZl/Bpn+0eQNhvvEe4njODfAREWOSTfaC9cTgLaalLQDyd4HyROJ6PuYJuL8bmxs5DNWD4Jmsz/Q+ogJN3nIsKNt3K6QYLSy6xL19IuJ6HOVDTUrdCDRJNSMarvh4t5zXXeIE5o9AfmOoXtSV5DodBPFgOr7CNd1f4x7ztraGocN0npMRHvMDXOKogOmYL7v/34cxxeZLe2jrTuQmFFyN4AEM8yKl2JlzWs2e6Sgct03pmmqlRux4mNTGzOpUaszQMwJXGVzc/MHnBOlTvtZdTuQmFFxN4DE8TwvtwQWJiX5rC1xEitvE47j3DoYDM5AThS+P+kujcjzmDexqJ7O++tAorsS5fV2A0j2EdEjPPwyg0UTEkw4yY8mnOQJJn2otm8hyr0Mc/Ci6JikSA0Yi5Hq/2yZzawMSO5yHOfEFTVLOdbzvNwHnCOU6Gw+3U2vTm0bZupnEtEtZXG2qsbC4pnkjlmW3WzLDH9VOMkqgyR/TJTRDxkkFlTAvH9tBA4/rtfr3QfjxiZAKQJJgdeKW28Hkqpjav7vd4O4lZ/QZtOc3Vrda6yINr7vZ3grsXRXwqCtqII7kJjtnt0AEmMrYA0SWXl5hxaO3zw4OothALt3T/p8h8b451bpQGJGwd0AkmnKarOpzm7d7/e/OxwOYexoVFzX/Vqapsj9boub/ISIDjca1Appt1b5TmLFx33WRhOikbH83+v1rh2NRm/g+5Ou7VYFCIwjTnacxOyYWXZOciQ8/8ymOL+1uPwbu/NOLAMuTdP0MgvhT+Wg4a/yURMadCAxod7yWwHneQrNpji/teAkNsKfnue67g2sfZO2ZgZz+CARGUWc7EBiQH1acpAMBoPPbG1t/ZzZFOe3Fq/dNi7Jz3dd9w6Y0OjkU9SZlwJx3X2+reu6jc8nomss6tfzwaj+nkNE/6Az8QZ1VvFOggtr67k7eC16vd6nRqMR1M0mZRpIW1r2mnSo2hp5UNYFyVtd130P2KFFXXbudjkej+Fm+jcWCFLWxSqCBPkSr2qJnrO6rbufiv2sTSK7bBR93S3MwUgUrDUp13WvTtP0TZa0DvnchcPMLydJ8jELBOlAcoACeaIcmyYoZYSFFJB/LMuVaLATO+Cw0rxkbGYizfubdqf26u8TUWPT+VogWV9fv2djY2Oa6cgW4tUF7bchyjUlRkW7VeMk5wVBcAP7V7RE02m32Mxw4tra2jLWcCELlm0buzAMHxqPx3AOa1RqgYRPJ0wCzjHs5dboy6KROo0+kWVZW0GPVwkkeK+ITddEt708KD3Pe02SJKb5UDKkeoANlw0uKO7PjyWiH+vOS9arA5LjJzGN7pWNbbBznkQQBPujKLIRx2nVxa2rwjC8AMHabCtYZm0wdugiImPfkjAMvzEej5+Gb1lSATMdGgeu0waJOiX+BAQBG6/rGFOFYAW4oyfJIvMYTJbLSnAS3/f/bRzHn18UOLBG/PAnOIrpy/vtvV7vNHASW+XQQw+lhx9+uLGKWhskUM96nvcssECWGW0sBl/S0GeWZW3dS1YBJOuu6z6Spmm+pja4vO4mLewDU7P5Gz3POxeGjTZe3gV47ySiZ+vOqYm4dbzjOPdiI7dJ/LW1tR9sbm7ClMJ2WQWQfIuIjm7qH96U4JwBiwPEOY4DDahJLC68w52P/mwphgTHa6R90+Uk13ielw/cxmWquCB8EikA/iIR/b+mizaj3V4Hyacn6ahPx9rgD9PTBqfXWQe5fkpti/eOLZ22JXWudBznIlsgKRzqL2gSzVIHJFDrfZMnU9CLN6TDo82Kby7r6+ubGxsbcAe1WfYqSBCEDQ+wz21rfXQWQb6OY1N6nndhFEXwMWlSLvc87xLb4hY0ZuPx+PVJknyg7qAqQeL7/l2e552Ii5S8pNnmKgAL+lSJJt8/ManAi7GtshdBcozruve7rutgY0KbJddH3h1tEbGsn4IKmGN74WURwSEeaPDtqXauQduZTRS3a2TsOBckvu/fFMdxntOu7JXd1ss7E7ogdr3ZolnFXgPJm8IwvFrl5Mg3RhAEWRRF29bT1vrM26xlSX5USuvbJkHrXlp3o/d6vWtGoxFsBLcFqqvbD9eXdyYium+S1x6SUa0yCySPX19f/8jGxsZp4jU175g3tK0FKKYBA5vlS+BgMPiDzc3NNxHRuNasDq68V5L4vGgwGPyvichwNAOE1wdWs5wtCtxYvF0Ykm5+82L4H3kPcl33ziAIXj0ajabiusZg/mIwGLzC1mMif0+Mq3ac4FkgQSDkny5qF/C4g7D7cjE0Jl1ZRd5zIN9CVBAmFW8jossqO5lfYa+AZJuXYREISIsAKwisj61DTIfuRQUBxgWgKiUPxnwgkJZGcV33B4jjZUvpIPsBTYjoWVEU1YqyPwskMHk+FJPFya6c8ad11eJkCkRlfWi7jMqFlqBU/4+ELF8jIui4TcqeAInv+6fFcZypu0dOd/GWwDR3OOpI4Z2h8v5Z051brjG+CWBsW3f1fzCR+XyNxcsNHJlDGQaC2Cb9KEmotumMDuFqzG9pq+4JkCwtde0NLHc3tvk+wkMTiYFqR3ZZGZCEYXiClOMtPYyeQkRfsbdHVr6nM13XvaWNtzgBvHuI6MQ6lF4JkEwuj3dHUXSClJUteb51IKmz26rrvqvX672dU1TbNPVnLZwSAWvZl60ESFzXzcUtlm8tJrDpQFK98evUyO8jKDZ9SooKjn6/f/xwOMzjI+uUlQCJ4zh3ZVl2orzIgv2iGF4MO5Do7DK9Okd5nvddrAdzedsaLiE91HLnXQmQ9Pv9e4fDIfxhcrsm/tuC7NuBRA8AOrUudBznfeyC0cblHYNQXOVdk5/fqTOofK/oVtzl9XLVJL8d2DqhiAjhej67y2mzFMOH2poPLf7bBlD4xZ0PRuWSUcs5bBVAghfWzUKCl3xjWHiVfnmbEduXYvcuYBC+778ojuP8sJH3RVuHmbQERv9QDGRZpr33tSsugFZtfQIBmPEgOQUFiG8pZ6ANa4C25r1r+nUc54tZlj1X3hltWQxwnyUHIh6qtdwfVwEkiAX74ZZ2zM0Ta4DcALQrjSmA7L2fbtxaoyEORLaKFk5pJxPRXRrNV+JOAvPoX9MhRsM6q3DQNCRNZTPYdCWVtQwqSI5UMOv/zSRJ/kin61VYYG07Mh2CFesEQfDsKIpMbcuafHovtEGESZt+QzNpwvcbGOnC+HI0GmlLAXsdJC9agPYJGWORTaorNSgQhuFZcRzfZEENP/erFfdPX4eT7XWQ/AURtRXwTi5ObR+FGvtpz1UNw/Dk8Xj81UVMTPr7cwR8mLuoizzuQ7dXjWPPgqTX6z21prNPFa1Kf69kXuQgv7JRByvWiNcFWie8WRhaPGhRj1/apfZMgeTjRPSqqk72LEig9g3D8CTp4lpFjKa/V8RvK7Be02EtXTvf98+I4/hWG4+EupPjNxJ5gVfuxdwFLDHm2nHtVZBc6XneRYs4pUBpxdK/P8kqBYI3DaWju+67tR7MQPJMuLYeCXUIwd9iYErrb2WidFOWZbDlmn3p1/nQLqsDu5y3L2rM8jXX9/1vxnGM3OE/WtT3d8F3nqdiBD99Gceq1u83iWimOngvcRI3DMO/HY/Hp/JitBltsrjgLO+qk+oMIvqrZdwUCxwTXHr/Mo7jX1jgNxt9Sq3ZGydhkK4t62AvgeSJRASRZ6FFRo8RccOg+0fssFUujyeiHy47AfggVX//MxEdUxzz/wfyuZg207DpIQAAAABJRU5ErkJggg==;" vertex="1" parent="1">
          <mxGeometry x="150" y="572.59" width="70" height="87.41" as="geometry" />
        </mxCell>
        <mxCell id="7kI1amkjPLfrpKglaufH-23" value="&lt;b&gt;&lt;font style=&quot;font-size: 14px;&quot;&gt;VALOR DO PRODUTO&lt;/font&gt;&lt;/b&gt;" style="text;html=1;align=center;verticalAlign=middle;whiteSpace=wrap;rounded=0;" vertex="1" parent="1">
          <mxGeometry x="520" y="600" width="160" height="30" as="geometry" />
        </mxCell>
      </root>
    </mxGraphModel>
  </diagram>
</mxfile>
